# xmcd CD database file
#
# Track frame offsets:
#	150
#	17680
#	34844
#	48068
#	58948
#	75073
#	86579
#	101285
#
# Disc length: 1574 seconds
#
# Revision: 4
# Processed by: cddbd v1.5.2PL0 Copyright (c) Steve Scherf et al.
# Submitted via: CDex 2.17
#
DISCID=4d062408
DTITLE=Amy_Winehouse - Back_to_Black_(Bonus_CD)
DYEAR=2007
DGENRE=Pop
TTITLE0=Valerie
TTITLE1=Cupid
TTITLE2=Monkey_Man
TTITLE3=Some_Unholy_War
TTITLE4=Hey_Little_Rich_Girl
TTITLE5=Youre_Wondering_Now
TTITLE6=To_Know_Him_Is_To_Love_Him
TTITLE7=Love_Is_A_Loosing_Game_(Original_Demo)
EXTD=YEAR: 2007
EXTT0=
EXTT1=
EXTT2=
EXTT3=
EXTT4=
EXTT5=
EXTT6=
EXTT7=
PLAYORDER=
